<svg height="512" viewBox="0 0 64 64" width="512" xmlns="http://www.w3.org/2000/svg"><g fill="#898890"><path d="m55 12a2.006 2.006 0 0 0 -2 2v10h4v-10a2.006 2.006 0 0 0 -2-2z"/><path d="m52.77 24h-.77-8v4h8 .77.23v-4z"/><path d="m12 24h-.77-.23v4h.23.77 8v-4z"/><path d="m9 12a2.006 2.006 0 0 0 -2 2v10h4v-10a2.006 2.006 0 0 0 -2-2z"/></g><path d="m18 7h28v10h-28z" fill="#acabb1"/><path d="m18 33v28h-6a4.012 4.012 0 0 1 -4-4v-20a4 4 0 0 1 4-4z" fill="#c6c5ca"/><circle cx="13" cy="47" fill="#e6e7e8" r="2"/><path d="m56 37v19c0 2.21-1.79 5-4 5h-34v-28h34a4.028 4.028 0 0 1 4 4z" fill="#5aaae7"/><path d="m57 23.77a2.94 2.94 0 0 1 1 2.23 3 3 0 0 1 -3 3 3 3 0 0 1 -2.23-5 2.5 2.5 0 0 1 .23-.23 2.982 2.982 0 0 1 4 0z" fill="#d8d7da"/><circle cx="55" cy="10" fill="#d8d7da" r="2"/><path d="m37 4h6v3h-6z" fill="#c6c5ca"/><path d="m21 4h6v3h-6z" fill="#c6c5ca"/><circle cx="24" cy="12" fill="#e6e7e8" r="2"/><circle cx="40" cy="12" fill="#e6e7e8" r="2"/><path d="m11.23 24a3 3 0 0 1 -2.23 5 3 3 0 0 1 -3-3 3 3 0 0 1 5-2.23 2.5 2.5 0 0 1 .23.23z" fill="#d8d7da"/><path d="m29 17h6v4h-6z" fill="#898890"/><path d="m44 28v5h-24v-5-4-3h9 6 9v3z" fill="#acabb1"/><circle cx="9" cy="10" fill="#d8d7da" r="2"/><path d="m56 37v19c0 2.21-1.79 5-4 5h-27.15c7.81-4.35 21.66-13.38 30.25-26.51a3.969 3.969 0 0 1 .9 2.51z" fill="#3d9ae2"/><path d="m29 17h6v2h-6z" fill="#787680"/><path d="m24 9a3 3 0 1 0 3 3 3 3 0 0 0 -3-3zm0 4a1 1 0 1 1 1-1 1 1 0 0 1 -1 1z"/><path d="m40 9a3 3 0 1 0 3 3 3 3 0 0 0 -3-3zm0 4a1 1 0 1 1 1-1 1 1 0 0 1 -1 1z"/><path d="m29 13h6v2h-6z"/><path d="m59 6v-4h-2v3.465l-2 1.335-2-1.335v-3.465h-2v4a1 1 0 0 0 .445.832l1.5 1a2.965 2.965 0 0 0 -.165 4.168 2.981 2.981 0 0 0 -.78 2v9h-7v-2a1 1 0 0 0 -1-1h-8v-2h10a1 1 0 0 0 1-1v-10a1 1 0 0 0 -1-1h-2v-2a1 1 0 0 0 -1-1h-6a1 1 0 0 0 -1 1v2h-8v-2a1 1 0 0 0 -1-1h-6a1 1 0 0 0 -1 1v2h-2a1 1 0 0 0 -1 1v10a1 1 0 0 0 1 1h10v2h-8a1 1 0 0 0 -1 1v2h-7v-9a2.981 2.981 0 0 0 -.78-2 2.965 2.965 0 0 0 -.161-4.171l1.5-1a1 1 0 0 0 .441-.829v-4h-2v3.465l-2 1.335-2-1.335v-3.465h-2v4a1 1 0 0 0 .445.832l1.5 1a2.965 2.965 0 0 0 -.165 4.168 2.981 2.981 0 0 0 -.78 2v9.382a3.98 3.98 0 0 0 5.618 5.618h7.382v3h-7a5.006 5.006 0 0 0 -5 5v20a5.006 5.006 0 0 0 5 5h40a5.006 5.006 0 0 0 5-5v-20a5.006 5.006 0 0 0 -5-5h-7v-3h7.382a3.98 3.98 0 0 0 5.618-5.618v-9.382a2.981 2.981 0 0 0 -.78-2 2.965 2.965 0 0 0 -.161-4.171l1.5-1a1 1 0 0 0 .441-.829zm-4 5a1 1 0 1 1 1-1 1 1 0 0 1 -1 1zm1 3v8.142a3.592 3.592 0 0 0 -2 0v-8.142a1 1 0 0 1 2 0zm-18-9h4v1h-4zm-16 0h4v1h-4zm-3 3h26v8h-26zm11 10h4v2h-4zm-21-5a1 1 0 0 1 1 1v8.142a3.939 3.939 0 0 0 -1-.142 3.939 3.939 0 0 0 -1 .142v-8.142a1 1 0 0 1 1-1zm-1-3a1 1 0 1 1 1 1 1 1 0 0 1 -1-1zm1 18a2 2 0 1 1 2-2 2 2 0 0 1 -2 2zm3.858-1a3.592 3.592 0 0 0 0-2h6.142v2zm-3.858 30v-20a3 3 0 0 1 3-3h5v26h-5a3 3 0 0 1 -3-3zm46-20v20a3 3 0 0 1 -3 3h-33v-26h33a3 3 0 0 1 3 3zm-34-5v-10h22v10zm24-7h6.142a3.592 3.592 0 0 0 0 2h-6.142zm10 3a2 2 0 1 1 2-2 2 2 0 0 1 -2 2z"/><path d="m13 44a3 3 0 1 0 3 3 3 3 0 0 0 -3-3zm0 4a1 1 0 1 1 1-1 1 1 0 0 1 -1 1z"/><path d="m28.293 46.707 1.414-1.414-2.293-2.293 2.293-2.293-1.414-1.414-3 3a1 1 0 0 0 0 1.414z"/><path d="m37.707 46.707 3-3a1 1 0 0 0 0-1.414l-3-3-1.414 1.414 2.293 2.293-2.293 2.293z"/><path d="m29.838 42h6.325v2h-6.325z" transform="matrix(.316 -.949 .949 .316 -18.232 60.701)"/><path d="m28 50h4v2h-4z"/><path d="m34 50h8v2h-8z"/><path d="m30 54h6v2h-6z"/><path d="m38 54h4v2h-4z"/></svg>