<svg id="Layer_1" enable-background="new 0 0 512.02 512.02" height="512" viewBox="0 0 512.02 512.02" width="512" xmlns="http://www.w3.org/2000/svg"><g id="XMLID_2182_"><g id="XMLID_2082_"><circle id="XMLID_3664_" cx="255.51" cy="256.007" fill="#ff9b9b" r="24"/><g id="XMLID_3611_"><path id="XMLID_3635_" d="m376.01 186.007h-240c-11.046 0-20-8.954-20-20v-48c0-11.046 8.954-20 20-20h240c11.046 0 20 8.954 20 20v48c0 11.046-8.954 20-20 20z" fill="#9b98e7"/><path id="XMLID_3621_" d="m376.01 98.007h-240c-11.046 0-20-8.954-20-20v-48c0-11.046 8.954-20 20-20h240c11.046 0 20 8.954 20 20v48c0 11.046-8.954 20-20 20z" fill="#cecbf1"/></g><path id="XMLID_3707_" d="m214.01 502.02h-184c-11.046 0-20-8.954-20-20v-48c0-11.046 8.954-20 20-20h184c11.046 0 20 8.954 20 20v48c0 11.046-8.954 20-20 20z" fill="#9b98e7"/><path id="XMLID_2172_" d="m214.01 414.02h-184c-11.046 0-20-8.954-20-20v-48c0-11.046 8.954-20 20-20h184c11.046 0 20 8.954 20 20v48c0 11.046-8.954 20-20 20z" fill="#cecbf1"/><path id="XMLID_2155_" d="m482.01 502.02h-184c-11.046 0-20-8.954-20-20v-48c0-11.046 8.954-20 20-20h184c11.046 0 20 8.954 20 20v48c0 11.046-8.954 20-20 20z" fill="#9b98e7"/><path id="XMLID_2117_" d="m482.01 414.02h-184c-11.046 0-20-8.954-20-20v-48c0-11.046 8.954-20 20-20h184c11.046 0 20 8.954 20 20v48c0 11.046-8.954 20-20 20z" fill="#cecbf1"/></g><g id="XMLID_337_"><path id="XMLID_338_" d="m245.592 132.007h-83.666c-5.523 0-10 4.477-10 10s4.477 10 10 10h83.666c5.523 0 10-4.477 10-10s-4.477-10-10-10z"/><path id="XMLID_339_" d="m297.71 152.01c2.63 0 5.21-1.07 7.07-2.93s2.93-4.44 2.93-7.07c0-2.64-1.07-5.21-2.93-7.07-1.86-1.87-4.44-2.93-7.07-2.93s-5.21 1.06-7.07 2.93c-1.86 1.86-2.93 4.43-2.93 7.07 0 2.63 1.07 5.21 2.93 7.07s4.44 2.93 7.07 2.93z"/><path id="XMLID_340_" d="m350.09 152.01c2.64 0 5.21-1.07 7.07-2.93 1.87-1.86 2.93-4.44 2.93-7.07 0-2.64-1.06-5.21-2.93-7.07-1.86-1.87-4.43-2.93-7.07-2.93-2.63 0-5.21 1.06-7.07 2.93-1.86 1.86-2.93 4.43-2.93 7.07 0 2.63 1.07 5.21 2.93 7.07s4.44 2.93 7.07 2.93z"/><path id="XMLID_341_" d="m151.927 54.007c0 5.523 4.477 10 10 10h83.666c5.523 0 10-4.477 10-10s-4.477-10-10-10h-83.666c-5.523 0-10 4.477-10 10z"/><path id="XMLID_342_" d="m297.71 64.01c2.63 0 5.21-1.07 7.07-2.93s2.93-4.44 2.93-7.07c0-2.64-1.07-5.21-2.93-7.07-1.86-1.87-4.44-2.93-7.07-2.93s-5.21 1.06-7.07 2.93c-1.86 1.86-2.93 4.43-2.93 7.07 0 2.63 1.07 5.21 2.93 7.07s4.44 2.93 7.07 2.93z"/><path id="XMLID_346_" d="m357.16 61.08c1.87-1.86 2.93-4.44 2.93-7.07 0-2.64-1.06-5.21-2.93-7.07-1.86-1.87-4.43-2.93-7.07-2.93-2.63 0-5.21 1.06-7.07 2.93-1.86 1.86-2.93 4.43-2.93 7.07 0 2.63 1.07 5.21 2.93 7.07s4.44 2.93 7.07 2.93c2.64 0 5.21-1.07 7.07-2.93z"/><path id="XMLID_348_" d="m106.01 448.02h-56c-5.523 0-10 4.477-10 10s4.477 10 10 10h56c5.523 0 10-4.477 10-10s-4.477-10-10-10z"/><path id="XMLID_406_" d="m150.01 448.02c-2.63 0-5.21 1.07-7.07 2.93s-2.93 4.44-2.93 7.07 1.07 5.21 2.93 7.07 4.44 2.93 7.07 2.93 5.21-1.07 7.07-2.93 2.93-4.44 2.93-7.07-1.07-5.21-2.93-7.07-4.44-2.93-7.07-2.93z"/><path id="XMLID_407_" d="m194.01 448.02c-2.63 0-5.21 1.07-7.07 2.93s-2.93 4.44-2.93 7.07 1.07 5.21 2.93 7.07 4.44 2.93 7.07 2.93 5.21-1.07 7.07-2.93 2.93-4.44 2.93-7.07-1.07-5.21-2.93-7.07-4.44-2.93-7.07-2.93z"/><path id="XMLID_408_" d="m50.01 380.02h56c5.523 0 10-4.477 10-10s-4.477-10-10-10h-56c-5.523 0-10 4.477-10 10s4.477 10 10 10z"/><path id="XMLID_422_" d="m150.01 380.02c2.63 0 5.21-1.07 7.07-2.93s2.93-4.44 2.93-7.07-1.07-5.21-2.93-7.07-4.44-2.93-7.07-2.93-5.21 1.07-7.07 2.93-2.93 4.44-2.93 7.07 1.07 5.21 2.93 7.07 4.44 2.93 7.07 2.93z"/><path id="XMLID_757_" d="m194.01 380.02c2.63 0 5.21-1.07 7.07-2.93s2.93-4.44 2.93-7.07-1.07-5.21-2.93-7.07-4.44-2.93-7.07-2.93-5.21 1.07-7.07 2.93-2.93 4.44-2.93 7.07 1.07 5.21 2.93 7.07 4.44 2.93 7.07 2.93z"/><path id="XMLID_758_" d="m374.01 448.02h-56c-5.523 0-10 4.477-10 10s4.477 10 10 10h56c5.523 0 10-4.477 10-10s-4.477-10-10-10z"/><path id="XMLID_859_" d="m418.01 448.02c-2.63 0-5.21 1.07-7.07 2.93s-2.93 4.44-2.93 7.07 1.07 5.21 2.93 7.07 4.44 2.93 7.07 2.93 5.21-1.07 7.07-2.93 2.93-4.44 2.93-7.07-1.07-5.21-2.93-7.07-4.44-2.93-7.07-2.93z"/><path id="XMLID_1187_" d="m462.01 448.02c-2.63 0-5.21 1.07-7.07 2.93s-2.93 4.44-2.93 7.07 1.07 5.21 2.93 7.07 4.44 2.93 7.07 2.93 5.21-1.07 7.07-2.93 2.93-4.44 2.93-7.07c0-2.64-1.07-5.21-2.93-7.07s-4.44-2.93-7.07-2.93z"/><path id="XMLID_1382_" d="m512.01 346.02c0-16.542-13.458-30-30-30h-82.999v-60.013c0-5.523-4.477-10-10-10h-101.003c-3.305-10.719-11.778-19.192-22.497-22.497v-27.502h110.5c16.542 0 30-13.458 30-30v-48c0-7.678-2.902-14.688-7.663-20 4.761-5.312 7.663-12.322 7.663-20v-48c0-16.542-13.458-30-30-30h-75c-5.523 0-10 4.477-10 10s4.477 10 10 10h75c5.514 0 10 4.486 10 10v48c0 5.514-4.486 10-10 10h-240c-5.514 0-10-4.486-10-10v-48c0-5.514 4.486-10 10-10h75c5.523 0 10-4.477 10-10s-4.477-10-10-10h-75c-16.542 0-30 13.458-30 30v48c0 7.678 2.902 14.688 7.663 20-4.761 5.312-7.663 12.322-7.663 20v48c0 16.542 13.458 30 30 30h109.5v27.502c-10.719 3.305-19.192 11.778-22.497 22.497h-101.004c-5.523 0-10 4.477-10 10v60.013h-82c-16.542 0-30 13.458-30 30v48c0 7.678 2.902 14.688 7.663 20-4.761 5.312-7.663 12.322-7.663 20v48c0 16.542 13.458 30 30 30h184c16.542 0 30-13.458 30-30v-48c0-7.678-2.902-14.688-7.663-20 4.761-5.312 7.663-12.322 7.663-20v-48c0-16.542-13.458-30-30-30h-82v-50.013h91.003c4.281 13.882 17.229 24 32.497 24s28.217-10.118 32.497-24h91.003v50.013h-81c-16.542 0-30 13.458-30 30v48c0 7.678 2.902 14.688 7.663 20-4.761 5.312-7.663 12.322-7.663 20v48c0 16.542 13.458 30 30 30h184c16.542 0 30-13.458 30-30v-48c0-7.678-2.902-14.688-7.663-20 4.761-5.312 7.663-12.322 7.663-20zm-386-180.013v-48c0-5.514 4.486-10 10-10h240c5.514 0 10 4.486 10 10v48c0 5.514-4.486 10-10 10h-240c-5.514 0-10-4.486-10-10zm98 316.013c0 5.514-4.486 10-10 10h-184c-5.514 0-10-4.486-10-10v-48c0-5.514 4.486-10 10-10h184c5.514 0 10 4.486 10 10zm0-136v48c0 5.514-4.486 10-10 10h-184c-5.514 0-10-4.486-10-10v-48c0-5.514 4.486-10 10-10h184c5.514 0 10 4.486 10 10zm31.5-76.013c-7.72 0-14-6.28-14-14s6.28-14 14-14 14 6.28 14 14-6.28 14-14 14zm32.5 76.013c0-5.514 4.486-10 10-10h184c5.514 0 10 4.486 10 10v48c0 5.514-4.486 10-10 10h-184c-5.514 0-10-4.486-10-10zm204 136c0 5.514-4.486 10-10 10h-184c-5.514 0-10-4.486-10-10v-48c0-5.514 4.486-10 10-10h184c5.514 0 10 4.486 10 10z"/><path id="XMLID_1463_" d="m318.01 380.02h56c5.523 0 10-4.477 10-10s-4.477-10-10-10h-56c-5.523 0-10 4.477-10 10s4.477 10 10 10z"/><path id="XMLID_1466_" d="m418.01 380.02c2.63 0 5.21-1.07 7.07-2.93s2.93-4.44 2.93-7.07-1.07-5.21-2.93-7.07-4.44-2.93-7.07-2.93-5.21 1.07-7.07 2.93-2.93 4.44-2.93 7.07 1.07 5.21 2.93 7.07 4.44 2.93 7.07 2.93z"/><path id="XMLID_1471_" d="m462.01 380.02c2.63 0 5.21-1.07 7.07-2.93s2.93-4.44 2.93-7.07-1.07-5.21-2.93-7.07-4.44-2.93-7.07-2.93-5.21 1.07-7.07 2.93-2.93 4.44-2.93 7.07 1.07 5.21 2.93 7.07 4.44 2.93 7.07 2.93z"/><path id="XMLID_1472_" d="m256.01 20c2.63 0 5.21-1.07 7.07-2.93s2.93-4.44 2.93-7.07-1.07-5.21-2.93-7.07-4.44-2.93-7.07-2.93-5.21 1.07-7.07 2.93-2.93 4.44-2.93 7.07 1.07 5.21 2.93 7.07 4.44 2.93 7.07 2.93z"/></g></g></svg>