<?xml version="1.0" encoding="UTF-8" standalone="no"?>
<svg
   xmlns:dc="http://purl.org/dc/elements/1.1/"
   xmlns:cc="http://creativecommons.org/ns#"
   xmlns:rdf="http://www.w3.org/1999/02/22-rdf-syntax-ns#"
   xmlns:svg="http://www.w3.org/2000/svg"
   xmlns="http://www.w3.org/2000/svg"
   xml:space="preserve"
   id="svg2"
   viewBox="0 0 47.923636 13.09911"
   height="300"
   width="1097.54"
   version="1.1"><defs
     id="defs28" /><path
     style="fill:#000000;fill-opacity:1"
     id="path13"
     d="m 0.00173501,0.04235406 46.07065699,0.036435 0,13.02043494 c 0,0 -30.716663,0 -46.072392,0 C 0,8.7825126 0.00173501,0.04235406 0.00173501,0.04235406 Z m 1.32641719,1.39928504 0,10.3268299 c 0,0 28.9434808,0 43.4160878,0 0,-3.4440344 0,-6.8845648 0,-10.3268299 -14.472607,0 -43.4160878,0 -43.4160878,0" /><path
     style="fill:#000000;fill-opacity:1"
     id="path23"
     d="m 4.0200242,2.7689238 1.514666,0 1.4747608,5.7914718 1.4374579,-5.7914718 1.5875361,0 -2.325784,7.6739962 -1.4018901,0 -2.2867467,-7.6739962" /><path
     style="fill:#000000;fill-opacity:1"
     id="path15"
     d="m 14.459595,2.7689238 2.0664,0 2.175706,7.6739962 -1.548499,0 -0.517034,-1.9180914 -2.286746,0 c 0,0 -0.396451,1.5424604 -0.480599,1.8807884 -0.459778,0.03644 -1.584934,0 -1.584934,0 l 2.175706,-7.6366932 z m 0.995897,1.2925844 -0.811986,3.2444736 1.696843,0 -0.884857,-3.2444736" /><path
     style="fill:#000000;fill-opacity:1"
     id="path21"
     d="m 22.464943,2.7689238 c 0.488406,0 0.98462,0 1.476496,0 0,2.1271255 0,4.2568534 0,6.3814108 1.066165,0 2.138403,0 3.206303,0 0,0.434621 0,0.8553624 0,1.2917174 -1.573656,0 -3.147313,0 -4.720101,0 0,-2.5383584 -0.0642,-5.1998677 0.0373,-7.6731282" /><path
     style="fill:#000000;fill-opacity:1"
     id="path19"
     d="m 28.992928,2.7689238 1.550234,0 1.473893,5.7186018 1.439193,-5.7186018 1.549367,0 -2.324917,7.6739962 -1.365455,0 -2.322315,-7.6739962" /><path
     style="fill:#000000;fill-opacity:1"
     id="path17"
     d="m 38.213653,2.7689238 c 0,0 2.11498,0 3.173338,0 0,0.3296524 0,0.9967647 0,0.9967647 l -2.067268,0 c 0,0 0,0.7356454 0,1.1052031 0.627207,0 1.254414,0 1.882489,0 0,0.3287849 0,0.6679798 0,0.9967647 -0.628075,0 -1.255282,0 -1.882489,0 0,0.3791003 0,0.7608031 0,1.1416383 0.689668,0 2.067268,0 2.067268,0 l 0,0.997632 -3.208906,0 0.03557,-5.2380028" /><path
     style="fill:#000000;fill-opacity:1"
     id="path25"
     d="m 47.173258,-1.5394437e-4 c 0.416403,0 0.750393,0.34093020437 0.750393,0.76600830437 0,0.43201554 -0.33399,0.76860794 -0.755598,0.76860794 -0.416403,0 -0.757333,-0.3365924 -0.757333,-0.76860794 8.67e-4,-0.4250781 0.34093,-0.76600830437 0.7582,-0.76600830437 l 0.0087,0 z M 47.164558,0.12129716 c -0.335725,0 -0.611592,0.2880121 -0.611592,0.6445572 0,0.36608504 0.275867,0.64715704 0.616797,0.64715704 0.339195,0.00521 0.609857,-0.281072 0.609857,-0.64195204 0,-0.3617501 -0.27153,-0.6497622 -0.609857,-0.6497622 l -0.0087,0 z m -0.143139,1.08871784 -0.133596,0 0,-0.85275614 c 0.07114,-0.00954 0.137066,-0.019953 0.2403,-0.019953 0.127523,0 0.213406,0.028628 0.264589,0.063328 0.05205,0.03817 0.07721,0.096293 0.07721,0.1769713 0,0.1127758 -0.07374,0.1804413 -0.164826,0.209069 l 0,0.00607 c 0.07461,0.01388 0.125788,0.083281 0.144006,0.2055964 0.01908,0.13272854 0.03904,0.18477894 0.05292,0.21080414 l -0.142271,0 c -0.01648,-0.026025 -0.03817,-0.1049683 -0.05465,-0.21427414 -0.01822,-0.1101733 -0.07461,-0.1509435 -0.182176,-0.1509435 l -0.09543,0 0,0.36608514 0,0 z m 0,-0.47105334 0.0989,0 c 0.111041,0 0.206467,-0.04164 0.206467,-0.1466086 0,-0.074606 -0.05465,-0.1492111 -0.206467,-0.1492111 -0.04337,0 -0.0746,0.0026 -0.0989,0.00694 l 0,0.2888796" /><metadata
     id="metadata3344"><rdf:RDF><cc:Work
         rdf:about=""><dc:title></dc:title></cc:Work></rdf:RDF></metadata></svg>